<?xml version="1.0" encoding="UTF-8"?>
<svg width="84px" height="84px" viewBox="0 0 84 84" version="1.1" xmlns="http://www.w3.org/2000/svg" xmlns:xlink="http://www.w3.org/1999/xlink">
    <!-- Generator: Sketch 48.2 (47327) - http://www.bohemiancoding.com/sketch -->
    <title>Shape</title>
    <desc>Created with Sketch.</desc>
    <defs></defs>
    <g id="Page-1" stroke="none" stroke-width="1" fill="none" fill-rule="evenodd">
        <path d="M42,0.6 C19.2,0.6 0.6,19.2 0.6,42 C0.6,64.8 19.2,83.4 42,83.4 C64.8,83.4 83.4,64.8 83.4,42 C83.4,19.2 64.8,0.6 42,0.6 Z M42,77.2 C22.6,77.2 6.8,61.4 6.8,42 C6.8,22.6 22.6,6.8 42,6.8 C61.4,6.8 77.2,22.6 77.2,42 C77.2,61.4 61.4,77.2 42,77.2 Z M42,38.6 C48.3,38.6 53.4,33.5 53.4,27.2 C53.4,20.9 48.3,15.8 42,15.8 C35.7,15.8 30.6,20.9 30.6,27.2 C30.6,33.5 35.7,38.6 42,38.6 Z M42,22 C44.9,22 47.2,24.3 47.2,27.2 C47.2,30.1 44.9,32.4 42,32.4 C39.1,32.4 36.8,30.1 36.8,27.2 C36.8,24.3 39.1,22 42,22 Z M63.5,62.9 C63.7,64.6 62.5,66.2 60.8,66.4 C59.1,66.6 57.5,65.4 57.3,63.7 C55.4,47.5 45.3,47.5 42,47.5 C38.7,47.5 28.6,47.5 26.7,63.7 C26.5,65.3 25.2,66.4 23.6,66.4 C23.5,66.4 23.4,66.4 23.2,66.4 C21.5,66.2 20.3,64.7 20.5,62.9 C22.2,48.9 29.8,41.2 42,41.2 C54.2,41.2 61.8,48.9 63.5,62.9 Z" id="Shape" fill="#000000" fill-rule="nonzero"></path>
    </g>
</svg>